<svg width="68" height="68" viewBox="0 0 68 68" fill="none" xmlns="http://www.w3.org/2000/svg">
<path d="M48.5332 40.6667C48.7998 38.4667 48.9998 36.2667 48.9998 34C48.9998 31.7333 48.7998 29.5333 48.5332 27.3333H59.7998C60.3332 29.4667 60.6665 31.7 60.6665 34C60.6665 36.3 60.3332 38.5333 59.7998 40.6667M42.6332 59.2C44.6332 55.5 46.1665 51.5 47.2332 47.3333H57.0665C53.8371 52.8943 48.7136 57.1067 42.6332 59.2ZM41.7998 40.6667H26.1998C25.8665 38.4667 25.6665 36.2667 25.6665 34C25.6665 31.7333 25.8665 29.5 26.1998 27.3333H41.7998C42.0998 29.5 42.3332 31.7333 42.3332 34C42.3332 36.2667 42.0998 38.4667 41.7998 40.6667ZM33.9998 60.5333C31.2332 56.5333 28.9998 52.1 27.6332 47.3333H40.3665C38.9998 52.1 36.7665 56.5333 33.9998 60.5333ZM20.6665 20.6667H10.9332C14.1294 15.0907 19.2492 10.8716 25.3332 8.8C23.3332 12.5 21.8332 16.5 20.6665 20.6667ZM10.9332 47.3333H20.6665C21.8332 51.5 23.3332 55.5 25.3332 59.2C19.2619 57.1055 14.1493 52.8924 10.9332 47.3333ZM8.19984 40.6667C7.6665 38.5333 7.33317 36.3 7.33317 34C7.33317 31.7 7.6665 29.4667 8.19984 27.3333H19.4665C19.1998 29.5333 18.9998 31.7333 18.9998 34C18.9998 36.2667 19.1998 38.4667 19.4665 40.6667M33.9998 7.43334C36.7665 11.4333 38.9998 15.9 40.3665 20.6667H27.6332C28.9998 15.9 31.2332 11.4333 33.9998 7.43334ZM57.0665 20.6667H47.2332C46.1899 16.5382 44.6451 12.553 42.6332 8.8C48.7665 10.9 53.8665 15.1333 57.0665 20.6667ZM33.9998 0.666668C15.5665 0.666668 0.666504 15.6667 0.666504 34C0.666504 42.8405 4.1784 51.319 10.4296 57.5702C13.5249 60.6655 17.1995 63.1208 21.2437 64.796C25.2879 66.4711 29.6224 67.3333 33.9998 67.3333C42.8404 67.3333 51.3188 63.8214 57.5701 57.5702C63.8213 51.319 67.3332 42.8405 67.3332 34C67.3332 29.6226 66.471 25.2881 64.7958 21.2439C63.1207 17.1997 60.6653 13.5251 57.5701 10.4298C54.4748 7.33449 50.8001 4.87917 46.756 3.20402C42.7118 1.52886 38.3772 0.666668 33.9998 0.666668Z" fill="#A462FF"/>
</svg>
